<?xml version="1.0" encoding="utf-8"?>
<!-- Generator: Adobe Illustrator 16.0.0, SVG Export Plug-In . SVG Version: 6.00 Build 0)  -->
<!DOCTYPE svg PUBLIC "-//W3C//DTD SVG 1.1//EN" "http://www.w3.org/Graphics/SVG/1.1/DTD/svg11.dtd">
<svg version="1.1" id="圖層_1" xmlns="http://www.w3.org/2000/svg" xmlns:xlink="http://www.w3.org/1999/xlink" x="0px" y="0px"
	 width="95.68px" height="35.845px" viewBox="0 0 95.68 35.845" enable-background="new 0 0 95.68 35.845" xml:space="preserve">
<path fill="none" stroke="#FFFFFF" stroke-width="0.9451" stroke-miterlimit="10" d="M103.163-99.147"/>
<ellipse transform="matrix(0.9997 0.0227 -0.0227 0.9997 0.1403 -0.333)" fill="#E71F19" cx="14.762" cy="6.025" rx="6.141" ry="6.025"/>
<path fill="#E71F19" d="M9.291,13.807c-0.727-0.232-1.479-0.492-2.281-0.769c-1.744-0.601-3.825-2.464-4.858-0.393
	c-1.44,2.889,2.613,4.794,4.081,5.462c7.565,3.432-0.106,7.063-4.326,9.29c-2.407,1.272-2.715,2.884,0.124,3.256
	c2.991,0.394,5.475-2.087,8.285-2.824c3.384-0.887,4.603,10.266,8.254,7.604c4.908-3.575-6.348-13.42,3.224-15.997
	c1.344-0.364,8.182-1.454,5.595-4.332c-2.408-2.677-6.237-1.169-9.269-0.803C14.876,14.694,11.979,14.67,9.291,13.807z"/>
<ellipse transform="matrix(0.9459 -0.3245 0.3245 0.9459 -2.8039 11.7086)" fill="#E71F19" cx="33.704" cy="14.261" rx="4.493" ry="4.408"/>
<path fill="#E71F19" d="M31.862,21.217c-0.488,0.053-0.979,0.082-1.471,0.094c-1.392,0.034-3.926-0.405-4.205,1.715
	c-0.312,2.346,3.092,2.62,4.306,2.702c6.254,0.418,1.75,4.873-0.667,7.479c-1.38,1.487-1.182,2.673,0.929,2.202
	c2.224-0.495,3.345-2.832,5.148-4.059c2.17-1.474,5.917,5.863,7.819,3.104c2.556-3.708-7.973-7.579-1.848-11.799
	c0.857-0.593,5.427-3.09,2.847-4.402c-2.871-1.457-5.488,0.228-8.009,1.568C35.217,20.617,33.561,21.042,31.862,21.217z"/>
<g>
	<path fill="#5C5D5D" d="M55.257,27.11l-0.743-1.211l-0.749,1.211h-0.861l1.219-1.814l-1.17-1.736h0.861l0.7,1.156l0.693-1.156
		h0.861l-1.162,1.736l1.212,1.814H55.257z"/>
	<path fill="#5C5D5D" d="M57.936,22.86v-0.758h0.757v0.758H57.936z M57.957,27.11v-3.551h0.714v3.551H57.957z"/>
	<path fill="#5C5D5D" d="M63.089,27.11v-2.164c0-0.553-0.315-0.791-0.715-0.791c-0.398,0-0.735,0.244-0.735,0.791v2.164h-0.714
		v-3.551h0.7v0.357c0.245-0.266,0.589-0.398,0.945-0.398c0.364,0,0.666,0.119,0.876,0.322c0.273,0.266,0.357,0.602,0.357,1v2.27
		H63.089z"/>
</g>
<g>
	<path fill="#595757" stroke="#595757" stroke-width="0.25" stroke-miterlimit="10" d="M54.563,11.932v0.695
		c0,1.924-0.258,3.613-0.771,5.068c-0.061,0.105-0.139,0.16-0.235,0.168c-0.09,0.023-0.179,0.008-0.269-0.045
		c-0.156-0.141-0.18-0.313-0.067-0.514c0.455-1.373,0.683-2.934,0.683-4.678V9.93c-0.015-0.24,0.057-0.471,0.213-0.695
		c0.135-0.193,0.324-0.293,0.57-0.301c0.604-0.098,1.111-0.184,1.522-0.258c0.47-0.098,0.899-0.193,1.286-0.291
		c0.135-0.029,0.239-0.02,0.314,0.033c0.089,0.053,0.138,0.127,0.145,0.225c0,0.074-0.004,0.137-0.011,0.189
		c-0.097,0.18-0.753,0.385-1.97,0.615c-0.761,0.098-1.186,0.205-1.275,0.324c-0.09,0.113-0.135,0.25-0.135,0.414v1.086h3.335
		c0.104,0,0.183,0.027,0.235,0.078c0.06,0.068,0.09,0.15,0.09,0.246c-0.008,0.09-0.037,0.168-0.09,0.236
		c-0.061,0.066-0.139,0.1-0.235,0.1h-1.142v6.514c0,0.105-0.033,0.189-0.101,0.258c-0.06,0.059-0.138,0.094-0.235,0.1
		c-0.089-0.006-0.168-0.037-0.234-0.088c-0.06-0.068-0.09-0.158-0.09-0.27v-6.514H54.563z M60.685,14.204
		c-0.417,1.404-0.951,2.484-1.6,3.246c-0.029,0.016-0.049,0.037-0.057,0.066c-0.783,0.822-1.313,1.229-1.588,1.221
		c-0.09-0.021-0.161-0.07-0.213-0.145c-0.112-0.209-0.057-0.373,0.168-0.494c1.999-1.387,2.998-3.613,2.998-6.68V10.03v-0.021
		h-0.906c-0.074,0.5-0.168,0.951-0.279,1.354c-0.246,0.857-0.529,1.57-0.851,2.137c-0.052,0.098-0.123,0.162-0.212,0.191
		c-0.09,0.008-0.172-0.004-0.247-0.033c-0.097-0.061-0.149-0.127-0.156-0.201c-0.022-0.09-0.008-0.184,0.044-0.281
		c0.784-1.506,1.188-3.1,1.209-4.777c0.008-0.119,0.045-0.205,0.112-0.258c0.06-0.061,0.138-0.09,0.235-0.09
		c0.097,0.016,0.171,0.049,0.223,0.102c0.075,0.104,0.079,0.504,0.012,1.197h3.044c0.246-0.008,0.44,0.037,0.582,0.135
		c0.134,0.088,0.228,0.211,0.28,0.369c0.007,0.021,0.014,0.055,0.021,0.1c0.143,0.992-0.134,2.254-0.828,3.783
		c-0.052,0.104-0.115,0.168-0.189,0.189c-0.09,0.023-0.172,0.02-0.246-0.012c-0.194-0.088-0.254-0.234-0.18-0.436
		c0.201-0.402,0.361-0.775,0.481-1.119c0.335-1.045,0.433-1.768,0.291-2.172c-0.052-0.125-0.161-0.186-0.325-0.178h-1.465
		c0.007,0.008,0.011,0.014,0.011,0.021v1.389c-0.015,0.09-0.022,0.172-0.022,0.246c0,1.209,0.101,2.063,0.303,2.563
		c0.342,1.492,1.107,2.787,2.293,3.883c0.082,0.082,0.123,0.168,0.123,0.258c-0.007,0.082-0.037,0.16-0.089,0.234
		c-0.067,0.068-0.146,0.102-0.235,0.102c-0.097,0-0.183-0.037-0.258-0.111C61.872,17.256,61.044,15.793,60.685,14.204z"/>
</g>
<path fill="#595757" stroke="#595757" stroke-width="0.321" stroke-miterlimit="10" d="M74.798,9.276
	c-0.123,0-0.251,0.043-0.384,0.13c-0.386,0.284-0.91,0.595-1.572,0.928h3.968c0.1,0,0.178,0.027,0.228,0.078
	c0.058,0.065,0.088,0.146,0.088,0.241c-0.008,0.088-0.035,0.163-0.088,0.228c-0.058,0.068-0.136,0.101-0.228,0.101h-4.11
	c-0.108-0.008-0.188-0.038-0.241-0.088c-0.058-0.065-0.085-0.146-0.085-0.241c0-0.038,0.002-0.07,0.01-0.098
	c-1.5,0.632-2.342,0.903-2.525,0.807c-0.085-0.035-0.133-0.103-0.141-0.195c-0.015-0.095-0.007-0.181,0.021-0.253
	c0.045-0.073,0.115-0.118,0.208-0.141c1.721-0.511,3.16-1.173,4.315-1.988c0.153-0.103,0.334-0.153,0.537-0.153
	c0.211-0.007,0.386,0.033,0.524,0.121c1.078,0.692,2.558,1.292,4.436,1.803c0.11,0.007,0.179,0.047,0.209,0.12
	c0.042,0.093,0.063,0.188,0.055,0.284c-0.03,0.103-0.07,0.168-0.12,0.195c-0.131,0.06-0.569-0.033-1.312-0.273
	c-1.618-0.566-2.764-1.071-3.443-1.507C75.023,9.301,74.908,9.269,74.798,9.276z M71.367,14.52
	c-0.286-0.008-0.484-0.088-0.602-0.241c-0.123-0.158-0.184-0.341-0.176-0.544v-1.389c-0.008-0.233,0.067-0.419,0.221-0.557
	c0.146-0.153,0.331-0.229,0.557-0.229h0.218h6.731c0.24-0.007,0.429,0.065,0.569,0.218c0.138,0.153,0.211,0.341,0.218,0.567v1.389
	c-0.007,0.218-0.08,0.404-0.218,0.557c-0.153,0.153-0.344,0.229-0.569,0.229H71.367z M71.979,18.803
	c-0.286-0.005-0.484-0.086-0.603-0.238c-0.123-0.16-0.183-0.344-0.175-0.547v-2.089c-0.008-0.233,0.067-0.419,0.221-0.557
	c0.145-0.153,0.33-0.229,0.557-0.229h0.218h5.465c0.238-0.007,0.429,0.065,0.566,0.218c0.138,0.153,0.211,0.341,0.218,0.567v2.089
	c-0.007,0.219-0.08,0.404-0.218,0.557c-0.153,0.153-0.341,0.229-0.566,0.229H71.979z M74.524,12.205h-2.939
	c-0.122-0.007-0.21,0.025-0.263,0.098c-0.058,0.058-0.088,0.141-0.088,0.251v0.908c0.008,0.138,0.037,0.243,0.088,0.316
	c0.045,0.065,0.133,0.098,0.263,0.098h2.939V12.205z M77.802,16.674v-0.537c0-0.095-0.032-0.178-0.098-0.25
	c-0.064-0.065-0.168-0.098-0.306-0.098h-5.201c-0.123-0.007-0.211,0.025-0.264,0.098c-0.058,0.058-0.087,0.143-0.087,0.25v0.537
	H77.802z M71.847,17.318v0.426c0.007,0.139,0.037,0.244,0.087,0.316c0.046,0.064,0.134,0.098,0.264,0.098h5.201
	c0.123-0.008,0.224-0.043,0.296-0.107c0.065-0.073,0.101-0.176,0.107-0.307v-0.426H71.847z M72.067,12.554
	c-0.008-0.08,0.02-0.153,0.085-0.218c0.067-0.065,0.143-0.098,0.23-0.098s0.168,0.035,0.241,0.108
	c0.581,0.597,0.87,1.016,0.862,1.256c-0.022,0.088-0.07,0.158-0.143,0.208c-0.081,0.045-0.156,0.063-0.229,0.055
	c-0.088-0.022-0.163-0.08-0.23-0.175c-0.188-0.313-0.427-0.612-0.71-0.896C72.109,12.722,72.074,12.642,72.067,12.554z
	 M76.556,13.875h1.497c0.126-0.008,0.224-0.043,0.296-0.108c0.065-0.073,0.104-0.176,0.11-0.306v-0.908
	c0-0.095-0.032-0.178-0.101-0.251c-0.064-0.065-0.165-0.098-0.306-0.098h-2.884v1.67h1.148c-0.045-0.02-0.08-0.048-0.11-0.075
	c-0.058-0.081-0.088-0.158-0.088-0.231c0.008-0.093,0.048-0.178,0.121-0.25c0.16-0.138,0.32-0.309,0.481-0.514
	c0.298-0.364,0.483-0.549,0.557-0.557c0.08-0.022,0.158-0.007,0.23,0.043c0.085,0.06,0.133,0.133,0.141,0.221
	c0.008,0.093-0.016,0.178-0.065,0.25c-0.08,0.088-0.211,0.244-0.394,0.469c-0.181,0.21-0.349,0.398-0.502,0.557
	C76.631,13.825,76.586,13.855,76.556,13.875z"/>
<path fill="#595757" stroke="#595757" stroke-width="0.321" stroke-miterlimit="10" d="M89.015,17.208
	c0.088,0.035,0.146,0.09,0.173,0.163c0.037,0.095,0.04,0.178,0.013,0.251c-0.038,0.095-0.104,0.158-0.198,0.185
	c-0.261,0.096-0.725,0.256-1.387,0.482c-1.201,0.416-1.881,0.578-2.034,0.491c-0.065-0.043-0.112-0.113-0.141-0.208
	c-0.007-0.086,0.003-0.164,0.033-0.229c0.05-0.08,0.13-0.131,0.24-0.152c0.945-0.227,1.959-0.547,3.037-0.964
	C88.839,17.193,88.927,17.186,89.015,17.208z M87.231,17.055c-0.291-0.015-0.504-0.093-0.645-0.23
	c-0.153-0.153-0.226-0.341-0.218-0.567v-3.662c0.007-0.271,0.08-0.481,0.218-0.634c0.16-0.153,0.376-0.228,0.645-0.228h0.188h6.546
	c0.253,0,0.451,0.08,0.589,0.241c0.123,0.166,0.188,0.374,0.196,0.622v3.662c0,0.238-0.068,0.429-0.208,0.567
	c-0.158,0.153-0.352,0.23-0.577,0.23H87.231z M87.156,11.066c-0.19-0.015-0.339-0.07-0.449-0.163
	c-0.115-0.125-0.17-0.266-0.163-0.427V9.514c0-0.168,0.056-0.308,0.163-0.426c0.118-0.13,0.266-0.195,0.449-0.195h0.349h6.525
	c0.173,0,0.32,0.065,0.436,0.195c0.104,0.125,0.153,0.266,0.153,0.426v0.963c0,0.146-0.058,0.284-0.176,0.414
	c-0.1,0.11-0.24,0.168-0.413,0.175H87.156z M94.105,13.263v-0.471c-0.008-0.138-0.043-0.241-0.108-0.306
	c-0.088-0.08-0.213-0.115-0.373-0.107h-6.205c-0.14,0.007-0.245,0.047-0.318,0.12c-0.064,0.08-0.095,0.178-0.088,0.293v0.471H94.105
	z M87.013,15.48v0.449c-0.007,0.161,0.025,0.283,0.101,0.371c0.073,0.073,0.173,0.11,0.306,0.11h6.205
	c0.152,0,0.273-0.047,0.36-0.143c0.081-0.087,0.121-0.201,0.121-0.338V15.48H87.013z M94.105,14.836v-0.928h-7.093v0.928H94.105z
	 M87.505,9.537c-0.108,0-0.188,0.025-0.238,0.076c-0.053,0.067-0.078,0.145-0.078,0.241v0.306c0.008,0.103,0.038,0.168,0.088,0.198
	c0.058,0.042,0.136,0.065,0.229,0.065h6.207c0.095,0,0.157-0.025,0.186-0.078c0.045-0.05,0.07-0.113,0.077-0.186V9.853
	C93.968,9.765,93.95,9.69,93.92,9.625c-0.043-0.06-0.113-0.088-0.208-0.088H87.505z M92.282,17.84
	c-0.104-0.021-0.181-0.068-0.23-0.141c-0.043-0.065-0.063-0.143-0.056-0.231c0.015-0.093,0.058-0.163,0.133-0.206
	c0.078-0.06,0.166-0.075,0.261-0.045c2.1,0.517,3.195,0.896,3.29,1.136c0.028,0.072,0.028,0.153,0,0.241
	c-0.037,0.08-0.093,0.143-0.165,0.186c-0.093,0.022-0.188,0.018-0.283-0.011C94.401,18.392,93.418,18.081,92.282,17.84z"/>
<g>
	<path fill="#5C5D5D" d="M67.419,27.362v-4.463h0.889l1.057,3.158c0.098,0.295,0.168,0.516,0.213,0.662
		c0.051-0.162,0.131-0.4,0.238-0.717l1.068-3.104h0.795v4.463h-0.57v-3.736l-1.297,3.736h-0.533l-1.289-3.801v3.801H67.419z"/>
	<path fill="#5C5D5D" d="M72.8,27.362v-4.463h3.227v0.525H73.39v1.367h2.469v0.523H73.39v1.52h2.74v0.527H72.8z"/>
	<path fill="#5C5D5D" d="M77.083,27.362v-4.463h0.889l1.057,3.158c0.098,0.295,0.168,0.516,0.213,0.662
		c0.051-0.162,0.131-0.4,0.238-0.717l1.068-3.104h0.795v4.463h-0.57v-3.736l-1.297,3.736h-0.533l-1.289-3.801v3.801H77.083z"/>
	<path fill="#5C5D5D" d="M82.427,27.362v-4.463h1.674c0.342,0,0.615,0.045,0.82,0.135c0.207,0.09,0.367,0.229,0.484,0.416
		c0.117,0.189,0.176,0.385,0.176,0.59c0,0.191-0.053,0.371-0.156,0.539s-0.26,0.305-0.469,0.408c0.27,0.078,0.479,0.213,0.623,0.404
		s0.217,0.416,0.217,0.676c0,0.209-0.043,0.404-0.131,0.584c-0.09,0.18-0.197,0.318-0.328,0.414
		c-0.129,0.098-0.293,0.172-0.488,0.221c-0.195,0.051-0.436,0.076-0.721,0.076H82.427z M83.017,24.774h0.965
		c0.264,0,0.451-0.018,0.564-0.053c0.15-0.045,0.264-0.119,0.34-0.223s0.113-0.232,0.113-0.389c0-0.148-0.035-0.279-0.105-0.391
		c-0.072-0.113-0.174-0.191-0.305-0.232c-0.133-0.041-0.359-0.063-0.68-0.063h-0.893V24.774z M83.017,26.834h1.111
		c0.191,0,0.326-0.008,0.402-0.021c0.137-0.023,0.25-0.064,0.342-0.121c0.09-0.057,0.166-0.141,0.225-0.248
		c0.059-0.109,0.088-0.234,0.088-0.377c0-0.166-0.043-0.311-0.127-0.434c-0.086-0.123-0.205-0.209-0.355-0.258
		c-0.15-0.051-0.369-0.076-0.652-0.076h-1.033V26.834z"/>
	<path fill="#5C5D5D" d="M86.778,27.362v-4.463h3.227v0.525h-2.637v1.367h2.469v0.523h-2.469v1.52h2.74v0.527H86.778z"/>
	<path fill="#5C5D5D" d="M91.089,27.362v-4.463h1.98c0.396,0,0.699,0.039,0.906,0.119s0.373,0.223,0.496,0.426
		c0.123,0.201,0.186,0.426,0.186,0.672c0,0.316-0.102,0.584-0.307,0.801s-0.521,0.355-0.951,0.414
		c0.156,0.074,0.275,0.148,0.357,0.223c0.172,0.158,0.336,0.355,0.49,0.594l0.775,1.215H94.28l-0.59-0.93
		c-0.174-0.268-0.316-0.473-0.428-0.615c-0.111-0.141-0.211-0.24-0.299-0.297s-0.178-0.098-0.27-0.119
		c-0.068-0.014-0.178-0.021-0.33-0.021h-0.684v1.982H91.089z M91.681,24.868h1.27c0.27,0,0.48-0.027,0.633-0.084
		c0.152-0.055,0.268-0.145,0.348-0.268c0.078-0.123,0.117-0.256,0.117-0.4c0-0.211-0.076-0.385-0.229-0.521
		c-0.154-0.135-0.396-0.203-0.727-0.203h-1.412V24.868z"/>
</g>
</svg>
